<svg width="586" height="90" viewBox="0 0 586 90" fill="none" xmlns="http://www.w3.org/2000/svg">
<path d="M11.5391 82H10.2266L7.92188 74.3516C7.8125 74.013 7.6901 73.5859 7.55469 73.0703C7.41927 72.5547 7.34896 72.2448 7.34375 72.1406C7.22917 72.8281 7.04688 73.5807 6.79688 74.3984L4.5625 82H3.25L0.210938 70.5781H1.61719L3.42188 77.6328C3.67188 78.6224 3.85417 79.5182 3.96875 80.3203C4.10938 79.3672 4.31771 78.4349 4.59375 77.5234L6.64062 70.5781H8.04688L10.1953 77.5859C10.4453 78.3932 10.6562 79.3047 10.8281 80.3203C10.9271 79.5807 11.1146 78.6797 11.3906 77.6172L13.1875 70.5781H14.5938L11.5391 82ZM19.8047 82.1562C18.5391 82.1562 17.5391 81.7708 16.8047 81C16.0755 80.2292 15.7109 79.1589 15.7109 77.7891C15.7109 76.4089 16.0495 75.3125 16.7266 74.5C17.4089 73.6875 18.3229 73.2812 19.4688 73.2812C20.5417 73.2812 21.3906 73.6354 22.0156 74.3438C22.6406 75.0469 22.9531 75.9766 22.9531 77.1328V77.9531H17.0547C17.0807 78.9583 17.3333 79.7214 17.8125 80.2422C18.2969 80.763 18.9766 81.0234 19.8516 81.0234C20.7734 81.0234 21.6849 80.8307 22.5859 80.4453V81.6016C22.1276 81.7995 21.6927 81.9401 21.2812 82.0234C20.875 82.112 20.3828 82.1562 19.8047 82.1562ZM19.4531 74.3672C18.7656 74.3672 18.2161 74.5911 17.8047 75.0391C17.3984 75.487 17.1589 76.1068 17.0859 76.8984H21.5625C21.5625 76.0807 21.3802 75.4557 21.0156 75.0234C20.651 74.5859 20.1302 74.3672 19.4531 74.3672ZM29.1562 73.2969C30.2812 73.2969 31.1536 73.6823 31.7734 74.4531C32.3984 75.2188 32.7109 76.3047 32.7109 77.7109C32.7109 79.1172 32.3958 80.2109 31.7656 80.9922C31.1406 81.7682 30.2708 82.1562 29.1562 82.1562C28.599 82.1562 28.0885 82.0547 27.625 81.8516C27.1667 81.6432 26.7812 81.3255 26.4688 80.8984H26.375L26.1016 82H25.1719V69.8438H26.4688V72.7969C26.4688 73.4583 26.4479 74.0521 26.4062 74.5781H26.4688C27.0729 73.724 27.9688 73.2969 29.1562 73.2969ZM28.9688 74.3828C28.0833 74.3828 27.4453 74.638 27.0547 75.1484C26.6641 75.6536 26.4688 76.5078 26.4688 77.7109C26.4688 78.9141 26.6693 79.776 27.0703 80.2969C27.4714 80.8125 28.1146 81.0703 29 81.0703C29.7969 81.0703 30.3906 80.7812 30.7812 80.2031C31.1719 79.6198 31.3672 78.7839 31.3672 77.6953C31.3672 76.5807 31.1719 75.75 30.7812 75.2031C30.3906 74.6562 29.7865 74.3828 28.9688 74.3828ZM40.5078 79.6641C40.5078 80.4609 40.2109 81.0755 39.6172 81.5078C39.0234 81.9401 38.1901 82.1562 37.1172 82.1562C35.9818 82.1562 35.0964 81.9766 34.4609 81.6172V80.4141C34.8724 80.6224 35.3125 80.7865 35.7812 80.9062C36.2552 81.026 36.7109 81.0859 37.1484 81.0859C37.8255 81.0859 38.3464 80.9792 38.7109 80.7656C39.0755 80.5469 39.2578 80.2161 39.2578 79.7734C39.2578 79.4401 39.112 79.1562 38.8203 78.9219C38.5339 78.6823 37.9714 78.401 37.1328 78.0781C36.3359 77.7812 35.7682 77.5234 35.4297 77.3047C35.0964 77.0807 34.8464 76.8281 34.6797 76.5469C34.5182 76.2656 34.4375 75.9297 34.4375 75.5391C34.4375 74.8411 34.7214 74.2917 35.2891 73.8906C35.8568 73.4844 36.6354 73.2812 37.625 73.2812C38.5469 73.2812 39.4479 73.4688 40.3281 73.8438L39.8672 74.8984C39.0078 74.5443 38.2292 74.3672 37.5312 74.3672C36.9167 74.3672 36.4531 74.4635 36.1406 74.6562C35.8281 74.849 35.6719 75.1146 35.6719 75.4531C35.6719 75.6823 35.7292 75.8776 35.8438 76.0391C35.9635 76.2005 36.1536 76.3542 36.4141 76.5C36.6745 76.6458 37.1745 76.8568 37.9141 77.1328C38.9297 77.5026 39.6146 77.875 39.9688 78.25C40.3281 78.625 40.5078 79.0964 40.5078 79.6641ZM43.9219 82H42.625V73.4375H43.9219V82ZM42.5156 71.1172C42.5156 70.8203 42.5885 70.6042 42.7344 70.4688C42.8802 70.3281 43.0625 70.2578 43.2812 70.2578C43.4896 70.2578 43.6693 70.3281 43.8203 70.4688C43.9714 70.6094 44.0469 70.8255 44.0469 71.1172C44.0469 71.4089 43.9714 71.6276 43.8203 71.7734C43.6693 71.9141 43.4896 71.9844 43.2812 71.9844C43.0625 71.9844 42.8802 71.9141 42.7344 71.7734C42.5885 71.6276 42.5156 71.4089 42.5156 71.1172ZM49.4375 81.0859C49.6667 81.0859 49.888 81.0703 50.1016 81.0391C50.3151 81.0026 50.4844 80.9661 50.6094 80.9297V81.9219C50.4688 81.9896 50.2604 82.0443 49.9844 82.0859C49.7135 82.1328 49.4688 82.1562 49.25 82.1562C47.5938 82.1562 46.7656 81.2839 46.7656 79.5391V74.4453H45.5391V73.8203L46.7656 73.2812L47.3125 71.4531H48.0625V73.4375H50.5469V74.4453H48.0625V79.4844C48.0625 80 48.1849 80.3958 48.4297 80.6719C48.6745 80.9479 49.0104 81.0859 49.4375 81.0859ZM55.9453 82.1562C54.6797 82.1562 53.6797 81.7708 52.9453 81C52.2161 80.2292 51.8516 79.1589 51.8516 77.7891C51.8516 76.4089 52.1901 75.3125 52.8672 74.5C53.5495 73.6875 54.4635 73.2812 55.6094 73.2812C56.6823 73.2812 57.5312 73.6354 58.1562 74.3438C58.7812 75.0469 59.0938 75.9766 59.0938 77.1328V77.9531H53.1953C53.2214 78.9583 53.474 79.7214 53.9531 80.2422C54.4375 80.763 55.1172 81.0234 55.9922 81.0234C56.9141 81.0234 57.8255 80.8307 58.7266 80.4453V81.6016C58.2682 81.7995 57.8333 81.9401 57.4219 82.0234C57.0156 82.112 56.5234 82.1562 55.9453 82.1562ZM55.5938 74.3672C54.9062 74.3672 54.3568 74.5911 53.9453 75.0391C53.5391 75.487 53.2995 76.1068 53.2266 76.8984H57.7031C57.7031 76.0807 57.5208 75.4557 57.1562 75.0234C56.7917 74.5859 56.2708 74.3672 55.5938 74.3672ZM74.2891 70.5781V77.9688C74.2891 79.2708 73.8958 80.2943 73.1094 81.0391C72.3229 81.7839 71.2422 82.1562 69.8672 82.1562C68.4922 82.1562 67.4271 81.7812 66.6719 81.0312C65.9219 80.2812 65.5469 79.25 65.5469 77.9375V70.5781H66.875V78.0312C66.875 78.9844 67.1354 79.7161 67.6562 80.2266C68.1771 80.737 68.9427 80.9922 69.9531 80.9922C70.9167 80.9922 71.6589 80.737 72.1797 80.2266C72.7005 79.7109 72.9609 78.974 72.9609 78.0156V70.5781H74.2891ZM82.6484 79.6641C82.6484 80.4609 82.3516 81.0755 81.7578 81.5078C81.1641 81.9401 80.3307 82.1562 79.2578 82.1562C78.1224 82.1562 77.237 81.9766 76.6016 81.6172V80.4141C77.013 80.6224 77.4531 80.7865 77.9219 80.9062C78.3958 81.026 78.8516 81.0859 79.2891 81.0859C79.9661 81.0859 80.487 80.9792 80.8516 80.7656C81.2161 80.5469 81.3984 80.2161 81.3984 79.7734C81.3984 79.4401 81.2526 79.1562 80.9609 78.9219C80.6745 78.6823 80.112 78.401 79.2734 78.0781C78.4766 77.7812 77.9089 77.5234 77.5703 77.3047C77.237 77.0807 76.987 76.8281 76.8203 76.5469C76.6589 76.2656 76.5781 75.9297 76.5781 75.5391C76.5781 74.8411 76.862 74.2917 77.4297 73.8906C77.9974 73.4844 78.776 73.2812 79.7656 73.2812C80.6875 73.2812 81.5885 73.4688 82.4688 73.8438L82.0078 74.8984C81.1484 74.5443 80.3698 74.3672 79.6719 74.3672C79.0573 74.3672 78.5938 74.4635 78.2812 74.6562C77.9688 74.849 77.8125 75.1146 77.8125 75.4531C77.8125 75.6823 77.8698 75.8776 77.9844 76.0391C78.1042 76.2005 78.2943 76.3542 78.5547 76.5C78.8151 76.6458 79.3151 76.8568 80.0547 77.1328C81.0703 77.5026 81.7552 77.875 82.1094 78.25C82.4688 78.625 82.6484 79.0964 82.6484 79.6641ZM88.3828 82.1562C87.1172 82.1562 86.1172 81.7708 85.3828 81C84.6536 80.2292 84.2891 79.1589 84.2891 77.7891C84.2891 76.4089 84.6276 75.3125 85.3047 74.5C85.987 73.6875 86.901 73.2812 88.0469 73.2812C89.1198 73.2812 89.9688 73.6354 90.5938 74.3438C91.2188 75.0469 91.5312 75.9766 91.5312 77.1328V77.9531H85.6328C85.6589 78.9583 85.9115 79.7214 86.3906 80.2422C86.875 80.763 87.5547 81.0234 88.4297 81.0234C89.3516 81.0234 90.263 80.8307 91.1641 80.4453V81.6016C90.7057 81.7995 90.2708 81.9401 89.8594 82.0234C89.4531 82.112 88.9609 82.1562 88.3828 82.1562ZM88.0312 74.3672C87.3438 74.3672 86.7943 74.5911 86.3828 75.0391C85.9766 75.487 85.737 76.1068 85.6641 76.8984H90.1406C90.1406 76.0807 89.9583 75.4557 89.5938 75.0234C89.2292 74.5859 88.7083 74.3672 88.0312 74.3672ZM97.6562 73.2812C98.0365 73.2812 98.3776 73.3125 98.6797 73.375L98.5 74.5781C98.1458 74.5 97.8333 74.4609 97.5625 74.4609C96.8698 74.4609 96.276 74.7422 95.7812 75.3047C95.2917 75.8672 95.0469 76.5677 95.0469 77.4062V82H93.75V73.4375H94.8203L94.9688 75.0234H95.0312C95.349 74.4661 95.7318 74.0365 96.1797 73.7344C96.6276 73.4323 97.1198 73.2812 97.6562 73.2812Z" fill="#222222"/>
<path d="M17.3926 35H12.8662V22.6074L12.9102 20.5713L12.9834 18.3447C12.2314 19.0967 11.709 19.5898 11.416 19.8242L8.95508 21.8018L6.77246 19.0771L13.6719 13.584H17.3926V35ZM38.3105 35H23.3398V31.8506L28.7158 26.416C30.3076 24.7852 31.3477 23.6572 31.8359 23.0322C32.3242 22.3975 32.6758 21.8115 32.8906 21.2744C33.1055 20.7373 33.2129 20.1807 33.2129 19.6045C33.2129 18.7451 32.9736 18.1055 32.4951 17.6855C32.0264 17.2656 31.3965 17.0557 30.6055 17.0557C29.7754 17.0557 28.9697 17.2461 28.1885 17.627C27.4072 18.0078 26.5918 18.5498 25.7422 19.2529L23.2812 16.3379C24.3359 15.4395 25.21 14.8047 25.9033 14.4336C26.5967 14.0625 27.3535 13.7793 28.1738 13.584C28.9941 13.3789 29.9121 13.2764 30.9277 13.2764C32.2656 13.2764 33.4473 13.5205 34.4727 14.0088C35.498 14.4971 36.2939 15.1807 36.8604 16.0596C37.4268 16.9385 37.71 17.9443 37.71 19.0771C37.71 20.0635 37.5342 20.9912 37.1826 21.8604C36.8408 22.7197 36.3037 23.6035 35.5713 24.5117C34.8486 25.4199 33.5693 26.7139 31.7334 28.3936L28.9795 30.9863V31.1914H38.3105V35ZM55.332 24.292C55.332 28.0322 54.7168 30.8008 53.4863 32.5977C52.2656 34.3945 50.3809 35.293 47.832 35.293C45.3613 35.293 43.4961 34.3652 42.2363 32.5098C40.9863 30.6543 40.3613 27.915 40.3613 24.292C40.3613 20.5127 40.9717 17.7295 42.1924 15.9424C43.4131 14.1455 45.293 13.2471 47.832 13.2471C50.3027 13.2471 52.168 14.1846 53.4277 16.0596C54.6973 17.9346 55.332 20.6787 55.332 24.292ZM44.8584 24.292C44.8584 26.9189 45.083 28.8037 45.5322 29.9463C45.9912 31.0791 46.7578 31.6455 47.832 31.6455C48.8867 31.6455 49.6484 31.0693 50.1172 29.917C50.5859 28.7646 50.8203 26.8896 50.8203 24.292C50.8203 21.665 50.5811 19.7803 50.1025 18.6377C49.6338 17.4854 48.877 16.9092 47.832 16.9092C46.7676 16.9092 46.0059 17.4854 45.5469 18.6377C45.0879 19.7803 44.8584 21.665 44.8584 24.292ZM76.3379 35H71.1816L65.5713 25.9766L63.6523 27.3535V35H59.1113V13.584H63.6523V23.3838L65.4395 20.8643L71.2402 13.584H76.2793L68.8086 23.0615L76.3379 35ZM83.2959 26.0352H77.627V22.8271H83.2959V17.1143H86.5039V22.8271H92.1729V26.0352H86.5039V31.6748H83.2959V26.0352Z" fill="#222222"/>
<path d="M178.393 35H173.866V22.6074L173.91 20.5713L173.983 18.3447C173.231 19.0967 172.709 19.5898 172.416 19.8242L169.955 21.8018L167.772 19.0771L174.672 13.584H178.393V35ZM195.531 35H191.005V22.6074L191.049 20.5713L191.122 18.3447C190.37 19.0967 189.848 19.5898 189.555 19.8242L187.094 21.8018L184.911 19.0771L191.811 13.584H195.531V35ZM216.332 24.292C216.332 28.0322 215.717 30.8008 214.486 32.5977C213.266 34.3945 211.381 35.293 208.832 35.293C206.361 35.293 204.496 34.3652 203.236 32.5098C201.986 30.6543 201.361 27.915 201.361 24.292C201.361 20.5127 201.972 17.7295 203.192 15.9424C204.413 14.1455 206.293 13.2471 208.832 13.2471C211.303 13.2471 213.168 14.1846 214.428 16.0596C215.697 17.9346 216.332 20.6787 216.332 24.292ZM205.858 24.292C205.858 26.9189 206.083 28.8037 206.532 29.9463C206.991 31.0791 207.758 31.6455 208.832 31.6455C209.887 31.6455 210.648 31.0693 211.117 29.917C211.586 28.7646 211.82 26.8896 211.82 24.292C211.82 21.665 211.581 19.7803 211.103 18.6377C210.634 17.4854 209.877 16.9092 208.832 16.9092C207.768 16.9092 207.006 17.4854 206.547 18.6377C206.088 19.7803 205.858 21.665 205.858 24.292ZM237.338 35H232.182L226.571 25.9766L224.652 27.3535V35H220.111V13.584H224.652V23.3838L226.439 20.8643L232.24 13.584H237.279L229.809 23.0615L237.338 35ZM244.296 26.0352H238.627V22.8271H244.296V17.1143H247.504V22.8271H253.173V26.0352H247.504V31.6748H244.296V26.0352Z" fill="#222222"/>
<path d="M169.242 82H167.914V76.625H161.898V82H160.57V70.5781H161.898V75.4375H167.914V70.5781H169.242V82ZM177.453 82L177.195 80.7812H177.133C176.706 81.3177 176.279 81.6823 175.852 81.875C175.43 82.0625 174.901 82.1562 174.266 82.1562C173.417 82.1562 172.75 81.9375 172.266 81.5C171.786 81.0625 171.547 80.4401 171.547 79.6328C171.547 77.9036 172.93 76.9974 175.695 76.9141L177.148 76.8672V76.3359C177.148 75.6641 177.003 75.1693 176.711 74.8516C176.424 74.5286 175.964 74.3672 175.328 74.3672C174.615 74.3672 173.807 74.5859 172.906 75.0234L172.508 74.0312C172.93 73.8021 173.391 73.6224 173.891 73.4922C174.396 73.362 174.901 73.2969 175.406 73.2969C176.427 73.2969 177.182 73.5234 177.672 73.9766C178.167 74.4297 178.414 75.1562 178.414 76.1562V82H177.453ZM174.523 81.0859C175.331 81.0859 175.964 80.8646 176.422 80.4219C176.885 79.9792 177.117 79.3594 177.117 78.5625V77.7891L175.82 77.8438C174.789 77.8802 174.044 78.0417 173.586 78.3281C173.133 78.6094 172.906 79.0495 172.906 79.6484C172.906 80.1172 173.047 80.474 173.328 80.7188C173.615 80.9635 174.013 81.0859 174.523 81.0859ZM185.078 82.1562C184.521 82.1562 184.01 82.0547 183.547 81.8516C183.089 81.6432 182.703 81.3255 182.391 80.8984H182.297C182.359 81.3984 182.391 81.8724 182.391 82.3203V85.8438H181.094V73.4375H182.148L182.328 74.6094H182.391C182.724 74.1406 183.112 73.8021 183.555 73.5938C183.997 73.3854 184.505 73.2812 185.078 73.2812C186.214 73.2812 187.089 73.6693 187.703 74.4453C188.323 75.2214 188.633 76.3099 188.633 77.7109C188.633 79.1172 188.318 80.2109 187.688 80.9922C187.062 81.7682 186.193 82.1562 185.078 82.1562ZM184.891 74.3828C184.016 74.3828 183.383 74.625 182.992 75.1094C182.602 75.5938 182.401 76.3646 182.391 77.4219V77.7109C182.391 78.9141 182.591 79.776 182.992 80.2969C183.393 80.8125 184.036 81.0703 184.922 81.0703C185.661 81.0703 186.24 80.7708 186.656 80.1719C187.078 79.5729 187.289 78.7474 187.289 77.6953C187.289 76.6276 187.078 75.8099 186.656 75.2422C186.24 74.6693 185.651 74.3828 184.891 74.3828ZM194.891 82.1562C194.333 82.1562 193.823 82.0547 193.359 81.8516C192.901 81.6432 192.516 81.3255 192.203 80.8984H192.109C192.172 81.3984 192.203 81.8724 192.203 82.3203V85.8438H190.906V73.4375H191.961L192.141 74.6094H192.203C192.536 74.1406 192.924 73.8021 193.367 73.5938C193.81 73.3854 194.318 73.2812 194.891 73.2812C196.026 73.2812 196.901 73.6693 197.516 74.4453C198.135 75.2214 198.445 76.3099 198.445 77.7109C198.445 79.1172 198.13 80.2109 197.5 80.9922C196.875 81.7682 196.005 82.1562 194.891 82.1562ZM194.703 74.3828C193.828 74.3828 193.195 74.625 192.805 75.1094C192.414 75.5938 192.214 76.3646 192.203 77.4219V77.7109C192.203 78.9141 192.404 79.776 192.805 80.2969C193.206 80.8125 193.849 81.0703 194.734 81.0703C195.474 81.0703 196.052 80.7708 196.469 80.1719C196.891 79.5729 197.102 78.7474 197.102 77.6953C197.102 76.6276 196.891 75.8099 196.469 75.2422C196.052 74.6693 195.464 74.3828 194.703 74.3828ZM199.359 73.4375H200.75L202.625 78.3203C203.036 79.4349 203.292 80.2396 203.391 80.7344H203.453C203.521 80.4688 203.661 80.0156 203.875 79.375C204.094 78.7292 204.802 76.75 206 73.4375H207.391L203.711 83.1875C203.346 84.151 202.919 84.8333 202.43 85.2344C201.945 85.6406 201.349 85.8438 200.641 85.8438C200.245 85.8438 199.854 85.7995 199.469 85.7109V84.6719C199.755 84.7344 200.076 84.7656 200.43 84.7656C201.32 84.7656 201.956 84.2656 202.336 83.2656L202.812 82.0469L199.359 73.4375ZM218.023 71.6016C216.768 71.6016 215.776 72.0208 215.047 72.8594C214.323 73.6927 213.961 74.8359 213.961 76.2891C213.961 77.7839 214.31 78.9401 215.008 79.7578C215.711 80.5703 216.711 80.9766 218.008 80.9766C218.805 80.9766 219.714 80.8333 220.734 80.5469V81.7109C219.943 82.0078 218.966 82.1562 217.805 82.1562C216.122 82.1562 214.823 81.6458 213.906 80.625C212.995 79.6042 212.539 78.1536 212.539 76.2734C212.539 75.0964 212.758 74.0651 213.195 73.1797C213.638 72.2943 214.273 71.612 215.102 71.1328C215.935 70.6536 216.914 70.4141 218.039 70.4141C219.237 70.4141 220.284 70.6328 221.18 71.0703L220.617 72.2109C219.753 71.8047 218.888 71.6016 218.023 71.6016ZM224.328 82H223.031V69.8438H224.328V82ZM228.375 82H227.078V73.4375H228.375V82ZM226.969 71.1172C226.969 70.8203 227.042 70.6042 227.188 70.4688C227.333 70.3281 227.516 70.2578 227.734 70.2578C227.943 70.2578 228.122 70.3281 228.273 70.4688C228.424 70.6094 228.5 70.8255 228.5 71.1172C228.5 71.4089 228.424 71.6276 228.273 71.7734C228.122 71.9141 227.943 71.9844 227.734 71.9844C227.516 71.9844 227.333 71.9141 227.188 71.7734C227.042 71.6276 226.969 71.4089 226.969 71.1172ZM234.742 82.1562C233.477 82.1562 232.477 81.7708 231.742 81C231.013 80.2292 230.648 79.1589 230.648 77.7891C230.648 76.4089 230.987 75.3125 231.664 74.5C232.346 73.6875 233.26 73.2812 234.406 73.2812C235.479 73.2812 236.328 73.6354 236.953 74.3438C237.578 75.0469 237.891 75.9766 237.891 77.1328V77.9531H231.992C232.018 78.9583 232.271 79.7214 232.75 80.2422C233.234 80.763 233.914 81.0234 234.789 81.0234C235.711 81.0234 236.622 80.8307 237.523 80.4453V81.6016C237.065 81.7995 236.63 81.9401 236.219 82.0234C235.812 82.112 235.32 82.1562 234.742 82.1562ZM234.391 74.3672C233.703 74.3672 233.154 74.5911 232.742 75.0391C232.336 75.487 232.096 76.1068 232.023 76.8984H236.5C236.5 76.0807 236.318 75.4557 235.953 75.0234C235.589 74.5859 235.068 74.3672 234.391 74.3672ZM245.969 82V76.4609C245.969 75.763 245.81 75.2422 245.492 74.8984C245.174 74.5547 244.677 74.3828 244 74.3828C243.104 74.3828 242.448 74.625 242.031 75.1094C241.615 75.5938 241.406 76.3932 241.406 77.5078V82H240.109V73.4375H241.164L241.375 74.6094H241.438C241.703 74.1875 242.076 73.862 242.555 73.6328C243.034 73.3984 243.568 73.2812 244.156 73.2812C245.188 73.2812 245.964 73.5312 246.484 74.0312C247.005 74.526 247.266 75.3203 247.266 76.4141V82H245.969ZM252.703 81.0859C252.932 81.0859 253.154 81.0703 253.367 81.0391C253.581 81.0026 253.75 80.9661 253.875 80.9297V81.9219C253.734 81.9896 253.526 82.0443 253.25 82.0859C252.979 82.1328 252.734 82.1562 252.516 82.1562C250.859 82.1562 250.031 81.2839 250.031 79.5391V74.4453H248.805V73.8203L250.031 73.2812L250.578 71.4531H251.328V73.4375H253.812V74.4453H251.328V79.4844C251.328 80 251.451 80.3958 251.695 80.6719C251.94 80.9479 252.276 81.0859 252.703 81.0859ZM261.117 79.6641C261.117 80.4609 260.82 81.0755 260.227 81.5078C259.633 81.9401 258.799 82.1562 257.727 82.1562C256.591 82.1562 255.706 81.9766 255.07 81.6172V80.4141C255.482 80.6224 255.922 80.7865 256.391 80.9062C256.865 81.026 257.32 81.0859 257.758 81.0859C258.435 81.0859 258.956 80.9792 259.32 80.7656C259.685 80.5469 259.867 80.2161 259.867 79.7734C259.867 79.4401 259.721 79.1562 259.43 78.9219C259.143 78.6823 258.581 78.401 257.742 78.0781C256.945 77.7812 256.378 77.5234 256.039 77.3047C255.706 77.0807 255.456 76.8281 255.289 76.5469C255.128 76.2656 255.047 75.9297 255.047 75.5391C255.047 74.8411 255.331 74.2917 255.898 73.8906C256.466 73.4844 257.245 73.2812 258.234 73.2812C259.156 73.2812 260.057 73.4688 260.938 73.8438L260.477 74.8984C259.617 74.5443 258.839 74.3672 258.141 74.3672C257.526 74.3672 257.062 74.4635 256.75 74.6562C256.438 74.849 256.281 75.1146 256.281 75.4531C256.281 75.6823 256.339 75.8776 256.453 76.0391C256.573 76.2005 256.763 76.3542 257.023 76.5C257.284 76.6458 257.784 76.8568 258.523 77.1328C259.539 77.5026 260.224 77.875 260.578 78.25C260.938 78.625 261.117 79.0964 261.117 79.6641Z" fill="#222222"/>
<path d="M350.172 35H335.201V31.8506L340.577 26.416C342.169 24.7852 343.209 23.6572 343.697 23.0322C344.186 22.3975 344.537 21.8115 344.752 21.2744C344.967 20.7373 345.074 20.1807 345.074 19.6045C345.074 18.7451 344.835 18.1055 344.356 17.6855C343.888 17.2656 343.258 17.0557 342.467 17.0557C341.637 17.0557 340.831 17.2461 340.05 17.627C339.269 18.0078 338.453 18.5498 337.604 19.2529L335.143 16.3379C336.197 15.4395 337.071 14.8047 337.765 14.4336C338.458 14.0625 339.215 13.7793 340.035 13.584C340.855 13.3789 341.773 13.2764 342.789 13.2764C344.127 13.2764 345.309 13.5205 346.334 14.0088C347.359 14.4971 348.155 15.1807 348.722 16.0596C349.288 16.9385 349.571 17.9443 349.571 19.0771C349.571 20.0635 349.396 20.9912 349.044 21.8604C348.702 22.7197 348.165 23.6035 347.433 24.5117C346.71 25.4199 345.431 26.7139 343.595 28.3936L340.841 30.9863V31.1914H350.172V35ZM367.193 24.292C367.193 28.0322 366.578 30.8008 365.348 32.5977C364.127 34.3945 362.242 35.293 359.693 35.293C357.223 35.293 355.357 34.3652 354.098 32.5098C352.848 30.6543 352.223 27.915 352.223 24.292C352.223 20.5127 352.833 17.7295 354.054 15.9424C355.274 14.1455 357.154 13.2471 359.693 13.2471C362.164 13.2471 364.029 14.1846 365.289 16.0596C366.559 17.9346 367.193 20.6787 367.193 24.292ZM356.72 24.292C356.72 26.9189 356.944 28.8037 357.394 29.9463C357.853 31.0791 358.619 31.6455 359.693 31.6455C360.748 31.6455 361.51 31.0693 361.979 29.917C362.447 28.7646 362.682 26.8896 362.682 24.292C362.682 21.665 362.442 19.7803 361.964 18.6377C361.495 17.4854 360.738 16.9092 359.693 16.9092C358.629 16.9092 357.867 17.4854 357.408 18.6377C356.949 19.7803 356.72 21.665 356.72 24.292ZM388.199 35H383.043L377.433 25.9766L375.514 27.3535V35H370.973V13.584H375.514V23.3838L377.301 20.8643L383.102 13.584H388.141L380.67 23.0615L388.199 35ZM395.157 26.0352H389.488V22.8271H395.157V17.1143H398.365V22.8271H404.034V26.0352H398.365V31.6748H395.157V26.0352Z" fill="#222222"/>
<path d="M330.75 82L329.328 78.3672H324.75L323.344 82H322L326.516 70.5312H327.633L332.125 82H330.75ZM328.914 77.1719L327.586 73.6328C327.414 73.1849 327.237 72.6354 327.055 71.9844C326.94 72.4844 326.776 73.0339 326.562 73.6328L325.219 77.1719H328.914ZM336.922 82.1562C335.682 82.1562 334.721 81.776 334.039 81.0156C333.362 80.25 333.023 79.1693 333.023 77.7734C333.023 76.3411 333.367 75.2344 334.055 74.4531C334.747 73.6719 335.732 73.2812 337.008 73.2812C337.419 73.2812 337.831 73.3255 338.242 73.4141C338.654 73.5026 338.977 73.6068 339.211 73.7266L338.812 74.8281C338.526 74.7135 338.214 74.6198 337.875 74.5469C337.536 74.4688 337.237 74.4297 336.977 74.4297C335.237 74.4297 334.367 75.5391 334.367 77.7578C334.367 78.8099 334.578 79.6172 335 80.1797C335.427 80.7422 336.057 81.0234 336.891 81.0234C337.604 81.0234 338.336 80.8698 339.086 80.5625V81.7109C338.513 82.0078 337.792 82.1562 336.922 82.1562ZM343.891 81.0859C344.12 81.0859 344.341 81.0703 344.555 81.0391C344.768 81.0026 344.938 80.9661 345.062 80.9297V81.9219C344.922 81.9896 344.714 82.0443 344.438 82.0859C344.167 82.1328 343.922 82.1562 343.703 82.1562C342.047 82.1562 341.219 81.2839 341.219 79.5391V74.4453H339.992V73.8203L341.219 73.2812L341.766 71.4531H342.516V73.4375H345V74.4453H342.516V79.4844C342.516 80 342.638 80.3958 342.883 80.6719C343.128 80.9479 343.464 81.0859 343.891 81.0859ZM348.078 82H346.781V73.4375H348.078V82ZM346.672 71.1172C346.672 70.8203 346.745 70.6042 346.891 70.4688C347.036 70.3281 347.219 70.2578 347.438 70.2578C347.646 70.2578 347.826 70.3281 347.977 70.4688C348.128 70.6094 348.203 70.8255 348.203 71.1172C348.203 71.4089 348.128 71.6276 347.977 71.7734C347.826 71.9141 347.646 71.9844 347.438 71.9844C347.219 71.9844 347.036 71.9141 346.891 71.7734C346.745 71.6276 346.672 71.4089 346.672 71.1172ZM352.703 82L349.453 73.4375H350.844L352.688 78.5156C353.104 79.7031 353.349 80.474 353.422 80.8281H353.484C353.542 80.5521 353.721 79.9818 354.023 79.1172C354.331 78.2474 355.016 76.3542 356.078 73.4375H357.469L354.219 82H352.703ZM362.461 82.1562C361.195 82.1562 360.195 81.7708 359.461 81C358.732 80.2292 358.367 79.1589 358.367 77.7891C358.367 76.4089 358.706 75.3125 359.383 74.5C360.065 73.6875 360.979 73.2812 362.125 73.2812C363.198 73.2812 364.047 73.6354 364.672 74.3438C365.297 75.0469 365.609 75.9766 365.609 77.1328V77.9531H359.711C359.737 78.9583 359.99 79.7214 360.469 80.2422C360.953 80.763 361.633 81.0234 362.508 81.0234C363.43 81.0234 364.341 80.8307 365.242 80.4453V81.6016C364.784 81.7995 364.349 81.9401 363.938 82.0234C363.531 82.112 363.039 82.1562 362.461 82.1562ZM362.109 74.3672C361.422 74.3672 360.872 74.5911 360.461 75.0391C360.055 75.487 359.815 76.1068 359.742 76.8984H364.219C364.219 76.0807 364.036 75.4557 363.672 75.0234C363.307 74.5859 362.786 74.3672 362.109 74.3672ZM380.852 82H379.523V76.625H373.508V82H372.18V70.5781H373.508V75.4375H379.523V70.5781H380.852V82ZM391.188 77.7109C391.188 79.1068 390.836 80.1979 390.133 80.9844C389.43 81.7656 388.458 82.1562 387.219 82.1562C386.453 82.1562 385.773 81.9766 385.18 81.6172C384.586 81.2578 384.128 80.7422 383.805 80.0703C383.482 79.3984 383.32 78.612 383.32 77.7109C383.32 76.3151 383.669 75.2292 384.367 74.4531C385.065 73.6719 386.034 73.2812 387.273 73.2812C388.471 73.2812 389.422 73.6797 390.125 74.4766C390.833 75.2734 391.188 76.3516 391.188 77.7109ZM384.664 77.7109C384.664 78.8047 384.883 79.638 385.32 80.2109C385.758 80.7839 386.401 81.0703 387.25 81.0703C388.099 81.0703 388.742 80.7865 389.18 80.2188C389.622 79.6458 389.844 78.8099 389.844 77.7109C389.844 76.6224 389.622 75.7969 389.18 75.2344C388.742 74.6667 388.094 74.3828 387.234 74.3828C386.385 74.3828 385.745 74.6615 385.312 75.2188C384.88 75.776 384.664 76.6068 384.664 77.7109ZM396.234 81.0859C396.464 81.0859 396.685 81.0703 396.898 81.0391C397.112 81.0026 397.281 80.9661 397.406 80.9297V81.9219C397.266 81.9896 397.057 82.0443 396.781 82.0859C396.51 82.1328 396.266 82.1562 396.047 82.1562C394.391 82.1562 393.562 81.2839 393.562 79.5391V74.4453H392.336V73.8203L393.562 73.2812L394.109 71.4531H394.859V73.4375H397.344V74.4453H394.859V79.4844C394.859 80 394.982 80.3958 395.227 80.6719C395.471 80.9479 395.807 81.0859 396.234 81.0859ZM402.742 82.1562C401.477 82.1562 400.477 81.7708 399.742 81C399.013 80.2292 398.648 79.1589 398.648 77.7891C398.648 76.4089 398.987 75.3125 399.664 74.5C400.346 73.6875 401.26 73.2812 402.406 73.2812C403.479 73.2812 404.328 73.6354 404.953 74.3438C405.578 75.0469 405.891 75.9766 405.891 77.1328V77.9531H399.992C400.018 78.9583 400.271 79.7214 400.75 80.2422C401.234 80.763 401.914 81.0234 402.789 81.0234C403.711 81.0234 404.622 80.8307 405.523 80.4453V81.6016C405.065 81.7995 404.63 81.9401 404.219 82.0234C403.812 82.112 403.32 82.1562 402.742 82.1562ZM402.391 74.3672C401.703 74.3672 401.154 74.5911 400.742 75.0391C400.336 75.487 400.096 76.1068 400.023 76.8984H404.5C404.5 76.0807 404.318 75.4557 403.953 75.0234C403.589 74.5859 403.068 74.3672 402.391 74.3672ZM409.406 82H408.109V69.8438H409.406V82ZM417.68 79.6641C417.68 80.4609 417.383 81.0755 416.789 81.5078C416.195 81.9401 415.362 82.1562 414.289 82.1562C413.154 82.1562 412.268 81.9766 411.633 81.6172V80.4141C412.044 80.6224 412.484 80.7865 412.953 80.9062C413.427 81.026 413.883 81.0859 414.32 81.0859C414.997 81.0859 415.518 80.9792 415.883 80.7656C416.247 80.5469 416.43 80.2161 416.43 79.7734C416.43 79.4401 416.284 79.1562 415.992 78.9219C415.706 78.6823 415.143 78.401 414.305 78.0781C413.508 77.7812 412.94 77.5234 412.602 77.3047C412.268 77.0807 412.018 76.8281 411.852 76.5469C411.69 76.2656 411.609 75.9297 411.609 75.5391C411.609 74.8411 411.893 74.2917 412.461 73.8906C413.029 73.4844 413.807 73.2812 414.797 73.2812C415.719 73.2812 416.62 73.4688 417.5 73.8438L417.039 74.8984C416.18 74.5443 415.401 74.3672 414.703 74.3672C414.089 74.3672 413.625 74.4635 413.312 74.6562C413 74.849 412.844 75.1146 412.844 75.4531C412.844 75.6823 412.901 75.8776 413.016 76.0391C413.135 76.2005 413.326 76.3542 413.586 76.5C413.846 76.6458 414.346 76.8568 415.086 77.1328C416.102 77.5026 416.786 77.875 417.141 78.25C417.5 78.625 417.68 79.0964 417.68 79.6641Z" fill="#222222"/>
<path d="M514.584 13.3057C516.635 13.3057 518.285 13.7744 519.535 14.7119C520.795 15.6396 521.425 16.8945 521.425 18.4766C521.425 19.5703 521.122 20.5469 520.517 21.4062C519.911 22.2559 518.935 23.0176 517.587 23.6914C519.188 24.5508 520.336 25.4492 521.029 26.3867C521.732 27.3145 522.084 28.335 522.084 29.4482C522.084 31.2061 521.396 32.6221 520.019 33.6963C518.642 34.7607 516.83 35.293 514.584 35.293C512.24 35.293 510.399 34.7949 509.062 33.7988C507.724 32.8027 507.055 31.3916 507.055 29.5654C507.055 28.3447 507.377 27.2607 508.021 26.3135C508.676 25.3662 509.721 24.5312 511.156 23.8086C509.936 23.0371 509.057 22.2119 508.52 21.333C507.982 20.4541 507.714 19.4922 507.714 18.4473C507.714 16.9141 508.349 15.6738 509.618 14.7266C510.888 13.7793 512.543 13.3057 514.584 13.3057ZM511.244 29.3018C511.244 30.1416 511.537 30.7959 512.123 31.2646C512.709 31.7334 513.51 31.9678 514.525 31.9678C515.648 31.9678 516.488 31.7285 517.045 31.25C517.602 30.7617 517.88 30.1221 517.88 29.3311C517.88 28.6768 517.602 28.0664 517.045 27.5C516.498 26.9238 515.604 26.3135 514.364 25.6689C512.284 26.626 511.244 27.8369 511.244 29.3018ZM514.555 16.6162C513.783 16.6162 513.158 16.8164 512.68 17.2168C512.211 17.6074 511.977 18.1348 511.977 18.7988C511.977 19.3848 512.162 19.9121 512.533 20.3809C512.914 20.8398 513.598 21.3135 514.584 21.8018C515.541 21.3525 516.21 20.8936 516.591 20.4248C516.972 19.9561 517.162 19.4141 517.162 18.7988C517.162 18.125 516.918 17.5928 516.43 17.2021C515.941 16.8115 515.316 16.6162 514.555 16.6162ZM532.499 22.4023L536.967 13.584H541.859L534.755 26.665V35H530.243V26.8115L523.139 13.584H528.061L532.499 22.4023ZM548.817 26.0352H543.148V22.8271H548.817V17.1143H552.025V22.8271H557.694V26.0352H552.025V31.6748H548.817V26.0352Z" fill="#222222"/>
<path d="M483.797 82.1562C482.557 82.1562 481.596 81.776 480.914 81.0156C480.237 80.25 479.898 79.1693 479.898 77.7734C479.898 76.3411 480.242 75.2344 480.93 74.4531C481.622 73.6719 482.607 73.2812 483.883 73.2812C484.294 73.2812 484.706 73.3255 485.117 73.4141C485.529 73.5026 485.852 73.6068 486.086 73.7266L485.688 74.8281C485.401 74.7135 485.089 74.6198 484.75 74.5469C484.411 74.4688 484.112 74.4297 483.852 74.4297C482.112 74.4297 481.242 75.5391 481.242 77.7578C481.242 78.8099 481.453 79.6172 481.875 80.1797C482.302 80.7422 482.932 81.0234 483.766 81.0234C484.479 81.0234 485.211 80.8698 485.961 80.5625V81.7109C485.388 82.0078 484.667 82.1562 483.797 82.1562ZM495.391 77.7109C495.391 79.1068 495.039 80.1979 494.336 80.9844C493.633 81.7656 492.661 82.1562 491.422 82.1562C490.656 82.1562 489.977 81.9766 489.383 81.6172C488.789 81.2578 488.331 80.7422 488.008 80.0703C487.685 79.3984 487.523 78.612 487.523 77.7109C487.523 76.3151 487.872 75.2292 488.57 74.4531C489.268 73.6719 490.237 73.2812 491.477 73.2812C492.674 73.2812 493.625 73.6797 494.328 74.4766C495.036 75.2734 495.391 76.3516 495.391 77.7109ZM488.867 77.7109C488.867 78.8047 489.086 79.638 489.523 80.2109C489.961 80.7839 490.604 81.0703 491.453 81.0703C492.302 81.0703 492.945 80.7865 493.383 80.2188C493.826 79.6458 494.047 78.8099 494.047 77.7109C494.047 76.6224 493.826 75.7969 493.383 75.2344C492.945 74.6667 492.297 74.3828 491.438 74.3828C490.589 74.3828 489.948 74.6615 489.516 75.2188C489.083 75.776 488.867 76.6068 488.867 77.7109ZM508.586 82V76.4297C508.586 75.7474 508.44 75.237 508.148 74.8984C507.857 74.5547 507.404 74.3828 506.789 74.3828C505.982 74.3828 505.385 74.6146 505 75.0781C504.615 75.5417 504.422 76.2552 504.422 77.2188V82H503.125V76.4297C503.125 75.7474 502.979 75.237 502.688 74.8984C502.396 74.5547 501.94 74.3828 501.32 74.3828C500.508 74.3828 499.911 74.6276 499.531 75.1172C499.156 75.6016 498.969 76.3984 498.969 77.5078V82H497.672V73.4375H498.727L498.938 74.6094H499C499.245 74.1927 499.589 73.8672 500.031 73.6328C500.479 73.3984 500.979 73.2812 501.531 73.2812C502.87 73.2812 503.745 73.7656 504.156 74.7344H504.219C504.474 74.2865 504.844 73.9323 505.328 73.6719C505.812 73.4115 506.365 73.2812 506.984 73.2812C507.953 73.2812 508.677 73.5312 509.156 74.0312C509.641 74.526 509.883 75.3203 509.883 76.4141V82H508.586ZM516.547 82.1562C515.99 82.1562 515.479 82.0547 515.016 81.8516C514.557 81.6432 514.172 81.3255 513.859 80.8984H513.766C513.828 81.3984 513.859 81.8724 513.859 82.3203V85.8438H512.562V73.4375H513.617L513.797 74.6094H513.859C514.193 74.1406 514.581 73.8021 515.023 73.5938C515.466 73.3854 515.974 73.2812 516.547 73.2812C517.682 73.2812 518.557 73.6693 519.172 74.4453C519.792 75.2214 520.102 76.3099 520.102 77.7109C520.102 79.1172 519.786 80.2109 519.156 80.9922C518.531 81.7682 517.661 82.1562 516.547 82.1562ZM516.359 74.3828C515.484 74.3828 514.852 74.625 514.461 75.1094C514.07 75.5938 513.87 76.3646 513.859 77.4219V77.7109C513.859 78.9141 514.06 79.776 514.461 80.2969C514.862 80.8125 515.505 81.0703 516.391 81.0703C517.13 81.0703 517.708 80.7708 518.125 80.1719C518.547 79.5729 518.758 78.7474 518.758 77.6953C518.758 76.6276 518.547 75.8099 518.125 75.2422C517.708 74.6693 517.12 74.3828 516.359 74.3828ZM527.641 82L527.383 80.7812H527.32C526.893 81.3177 526.466 81.6823 526.039 81.875C525.617 82.0625 525.089 82.1562 524.453 82.1562C523.604 82.1562 522.938 81.9375 522.453 81.5C521.974 81.0625 521.734 80.4401 521.734 79.6328C521.734 77.9036 523.117 76.9974 525.883 76.9141L527.336 76.8672V76.3359C527.336 75.6641 527.19 75.1693 526.898 74.8516C526.612 74.5286 526.151 74.3672 525.516 74.3672C524.802 74.3672 523.995 74.5859 523.094 75.0234L522.695 74.0312C523.117 73.8021 523.578 73.6224 524.078 73.4922C524.583 73.362 525.089 73.2969 525.594 73.2969C526.615 73.2969 527.37 73.5234 527.859 73.9766C528.354 74.4297 528.602 75.1562 528.602 76.1562V82H527.641ZM524.711 81.0859C525.518 81.0859 526.151 80.8646 526.609 80.4219C527.073 79.9792 527.305 79.3594 527.305 78.5625V77.7891L526.008 77.8438C524.977 77.8802 524.232 78.0417 523.773 78.3281C523.32 78.6094 523.094 79.0495 523.094 79.6484C523.094 80.1172 523.234 80.474 523.516 80.7188C523.802 80.9635 524.201 81.0859 524.711 81.0859ZM537.141 82V76.4609C537.141 75.763 536.982 75.2422 536.664 74.8984C536.346 74.5547 535.849 74.3828 535.172 74.3828C534.276 74.3828 533.62 74.625 533.203 75.1094C532.786 75.5938 532.578 76.3932 532.578 77.5078V82H531.281V73.4375H532.336L532.547 74.6094H532.609C532.875 74.1875 533.247 73.862 533.727 73.6328C534.206 73.3984 534.74 73.2812 535.328 73.2812C536.359 73.2812 537.135 73.5312 537.656 74.0312C538.177 74.526 538.438 75.3203 538.438 76.4141V82H537.141ZM539.75 73.4375H541.141L543.016 78.3203C543.427 79.4349 543.682 80.2396 543.781 80.7344H543.844C543.911 80.4688 544.052 80.0156 544.266 79.375C544.484 78.7292 545.193 76.75 546.391 73.4375H547.781L544.102 83.1875C543.737 84.151 543.31 84.8333 542.82 85.2344C542.336 85.6406 541.74 85.8438 541.031 85.8438C540.635 85.8438 540.245 85.7995 539.859 85.7109V84.6719C540.146 84.7344 540.466 84.7656 540.82 84.7656C541.711 84.7656 542.346 84.2656 542.727 83.2656L543.203 82.0469L539.75 73.4375ZM556.43 76.2891L559.477 70.5781H560.914L557.102 77.5703V82H555.758V77.6328L551.953 70.5781H553.406L556.43 76.2891ZM565.914 82.1562C564.648 82.1562 563.648 81.7708 562.914 81C562.185 80.2292 561.82 79.1589 561.82 77.7891C561.82 76.4089 562.159 75.3125 562.836 74.5C563.518 73.6875 564.432 73.2812 565.578 73.2812C566.651 73.2812 567.5 73.6354 568.125 74.3438C568.75 75.0469 569.062 75.9766 569.062 77.1328V77.9531H563.164C563.19 78.9583 563.443 79.7214 563.922 80.2422C564.406 80.763 565.086 81.0234 565.961 81.0234C566.883 81.0234 567.794 80.8307 568.695 80.4453V81.6016C568.237 81.7995 567.802 81.9401 567.391 82.0234C566.984 82.112 566.492 82.1562 565.914 82.1562ZM565.562 74.3672C564.875 74.3672 564.326 74.5911 563.914 75.0391C563.508 75.487 563.268 76.1068 563.195 76.8984H567.672C567.672 76.0807 567.49 75.4557 567.125 75.0234C566.76 74.5859 566.24 74.3672 565.562 74.3672ZM576.547 82L576.289 80.7812H576.227C575.799 81.3177 575.372 81.6823 574.945 81.875C574.523 82.0625 573.995 82.1562 573.359 82.1562C572.51 82.1562 571.844 81.9375 571.359 81.5C570.88 81.0625 570.641 80.4401 570.641 79.6328C570.641 77.9036 572.023 76.9974 574.789 76.9141L576.242 76.8672V76.3359C576.242 75.6641 576.096 75.1693 575.805 74.8516C575.518 74.5286 575.057 74.3672 574.422 74.3672C573.708 74.3672 572.901 74.5859 572 75.0234L571.602 74.0312C572.023 73.8021 572.484 73.6224 572.984 73.4922C573.49 73.362 573.995 73.2969 574.5 73.2969C575.521 73.2969 576.276 73.5234 576.766 73.9766C577.26 74.4297 577.508 75.1562 577.508 76.1562V82H576.547ZM573.617 81.0859C574.424 81.0859 575.057 80.8646 575.516 80.4219C575.979 79.9792 576.211 79.3594 576.211 78.5625V77.7891L574.914 77.8438C573.883 77.8802 573.138 78.0417 572.68 78.3281C572.227 78.6094 572 79.0495 572 79.6484C572 80.1172 572.141 80.474 572.422 80.7188C572.708 80.9635 573.107 81.0859 573.617 81.0859ZM584.094 73.2812C584.474 73.2812 584.815 73.3125 585.117 73.375L584.938 74.5781C584.583 74.5 584.271 74.4609 584 74.4609C583.307 74.4609 582.714 74.7422 582.219 75.3047C581.729 75.8672 581.484 76.5677 581.484 77.4062V82H580.188V73.4375H581.258L581.406 75.0234H581.469C581.786 74.4661 582.169 74.0365 582.617 73.7344C583.065 73.4323 583.557 73.2812 584.094 73.2812Z" fill="#222222"/>
</svg>
